<?xml version="1.0" encoding="utf-8"?>
<!-- Generator: Adobe Illustrator 21.0.2, SVG Export Plug-In . SVG Version: 6.00 Build 0)  -->
<svg version="1.1" id="Layer_1" xmlns="http://www.w3.org/2000/svg" xmlns:xlink="http://www.w3.org/1999/xlink" x="0px" y="0px"
	 viewBox="0 0 300 600" style="enable-background:new 0 0 300 600;" xml:space="preserve">
<style type="text/css">
	.st0{fill:#FFFFFF;}
	.st1{fill:#CECECE;}
	.st2{fill:#E0E0E0;}
	.st3{fill:#EDEDED;}
	.st4{fill:#939393;}
	.st5{fill:#9E9E9E;}
	.st6{opacity:8.000000e-02;fill:#020202;}
	.st7{fill:#777777;}
	.st8{fill:#BFBFBF;}
	.st9{fill:#E6E7E9;}
	.st10{fill:#B8B9BB;}
	.st11{fill:#FEFCFE;}
	.st12{fill:#42210B;}
	.st13{fill:#6B3E1F;}
	.st14{fill:#1B1F21;}
	.st15{fill:#475059;}
	.st16{fill:#F9F9F7;}
	.st17{fill:#F4BA2E;}
	.st18{fill:#FFDB92;}
	.st19{fill:#FFCC5A;}
	.st20{fill:#2D3538;}
	.st21{fill:#CECFD1;}
	.st22{opacity:0.15;fill:#231F20;}
	.st23{fill:#F6F4F4;}
	.st24{opacity:0.2;fill:#231F20;}
	.st25{fill:#DEDEDE;}
	.st26{fill:#3A4349;}
	.st27{fill:#252B2D;}
	.st28{fill:#414A51;}
	.st29{fill:#323B3F;}
	.st30{fill:#8E6040;}
	.st31{fill:#512D10;}
	.st32{fill:#EAEAEA;}
	.st33{fill:#B2B2B2;}
	.st34{fill:#848484;}
	.st35{fill:#3F4D50;}
	.st36{opacity:0.26;fill:#020202;}
	.st37{fill:#EDBE85;}
	.st38{fill:#FFF2E6;}
	.st39{fill:#E2E2E2;}
	.st40{fill:#31373A;}
</style>
<g>
	
		<rect x="238.6" y="498.8" transform="matrix(0.9292 0.3696 -0.3696 0.9292 203.7425 -52.6129)" class="st0" width="1.1" height="13.4"/>
	
		<rect x="236.3" y="511.1" transform="matrix(-0.9292 -0.3695 0.3695 -0.9292 267.9166 1074.1965)" class="st1" width="1.1" height="0.7"/>
	<path class="st0" d="M236.8,511.5L236.8,511.5c-0.9-0.4-1.9,0.1-2.2,1l-0.2,0.6c-0.4,0.9,0.1,1.9,1,2.2h0c0.9,0.4,1.9-0.1,2.2-1
		l0.2-0.6C238.2,512.8,237.7,511.8,236.8,511.5z"/>
	<g>
		<path class="st0" d="M235.5,514.9L235.5,514.9c-1.5-0.6-3.3,0.1-3.9,1.7l-1.2,3c-0.6,1.5,0.1,3.3,1.7,3.9h0
			c1.5,0.6,3.3-0.1,3.9-1.7l1.2-3C237.8,517.2,237,515.5,235.5,514.9z"/>
		<path class="st2" d="M238.2,516.4c0,0.1,0,0.2-0.1,0.4l-2.8,7c-0.1,0.2-0.3,0.4-0.5,0.5c-0.2,0.1-0.5,0.1-0.8,0l-4-1.6
			c-0.2-0.1-0.4-0.3-0.5-0.5c-0.1-0.2-0.1-0.5,0-0.8l2.8-7c0.2-0.5,0.8-0.8,1.3-0.6l4,1.6C238,515.7,238.2,516,238.2,516.4z
			 M229.7,521.8c0,0.1,0,0.2,0.1,0.3c0.1,0.2,0.2,0.3,0.4,0.4l4,1.6c0.2,0.1,0.4,0.1,0.5,0c0.2-0.1,0.3-0.2,0.4-0.4l2.8-7
			c0.1-0.3,0-0.7-0.4-0.9l-4-1.6c-0.3-0.1-0.7,0-0.9,0.4l-2.8,7C229.8,521.7,229.7,521.8,229.7,521.8z"/>
	</g>
	<path class="st3" d="M209.2,581.1L209.2,581.1c9.2,3.7,19.7-0.8,23.3-10.1l10.2-25.5c3.7-9.2-0.8-19.7-10.1-23.3h0
		c-9.2-3.7-19.7,0.8-23.3,10.1l-10.2,25.5C195.4,567,199.9,577.5,209.2,581.1z"/>
	
		<rect x="204" y="526.9" transform="matrix(-0.9292 -0.3695 0.3695 -0.9292 222.3435 1145.7096)" class="st4" width="33.9" height="49.4"/>
	<path class="st5" d="M226.7,524.3l8.8,3.5c0.3,0.1,0.6,0,0.7-0.3l0,0c0.1-0.3,0-0.6-0.3-0.7l-8.8-3.5c-0.3-0.1-0.6,0-0.7,0.3l0,0
		C226.3,523.8,226.4,524.1,226.7,524.3z"/>
	<path class="st6" d="M214.5,519.1L193.9,571c-0.8,1.9,0.2,4.1,2.1,4.9l3.6,1.4l35.4-54.1l-15.6-6.2
		C217.5,516.2,215.3,517.1,214.5,519.1z"/>
	
		<rect x="233.4" y="516.5" transform="matrix(-0.9292 -0.3695 0.3695 -0.9292 259.7762 1086.912)" class="st2" width="1.1" height="4.1"/>
	<path class="st0" d="M266.7,556.4c-2.2-1.2-3.9-3.1-5.5-4.9c-0.8-1-1.7-2-2.4-3.2c-1.4-0.1-2.9-0.4-4.3-0.9
		c-2.4-0.9-4.7-2.4-6.6-3.7c-1.7-1.2-3.6-2.6-4.7-4.7c-1-2-1.2-4.6-0.5-7.3c0.4-1.4,1.1-2.9,1.7-4.3c0.4-0.9,0.8-1.7,1.1-2.5
		c1.4-3.6,2.8-7.3,3.4-11.1c0.4-3,0.5-7.3-1.7-11.1c-1.1-1.9-2.7-3.5-4.4-5.1l-1,2.4l-1-0.4l1.1-2.8c-0.1-0.1-0.2-0.2-0.3-0.3
		c-1.7-1.5-3.4-3-4.8-4.8c-0.7-0.9-1.6-2.3-1.6-4c0-1.8,1.3-3.5,3.1-4.2c1.7-0.6,3.7-0.2,5.1,1c1.3,1.1,2.1,2.8,2.1,4.7
		c0,1.8-0.7,3.5-1.3,5l-0.9,2.3c1.8,1.7,3.7,3.4,4.9,5.6c2.3,4,2.3,8.6,1.8,11.8c-0.6,4-2,7.7-3.5,11.4c-0.3,0.9-0.7,1.7-1.1,2.6
		c-0.6,1.3-1.3,2.7-1.6,4.1c-0.6,2.4-0.5,4.7,0.4,6.5c0.9,1.8,2.6,3.1,4.3,4.3c1.9,1.3,4,2.7,6.3,3.5c1.1,0.4,2.2,0.7,3.2,0.8
		c-0.2-0.3-0.3-0.6-0.5-0.9c-0.7-1.5-1.5-3.9-0.9-6.4c0.5-2.3,2.2-4.3,4.2-5c1.9-0.6,4-0.2,5.5,1c2,1.7,2.6,4.8,1.5,7.4
		c-1,2.3-3.3,4.1-5.9,4.8c-0.6,0.1-1.3,0.2-1.9,0.3c0.6,0.9,1.3,1.7,1.9,2.5c1.5,1.8,3.1,3.5,5.2,4.7c2.2,1.2,4.5,1.5,6.5,0.8
		c0.3-0.1,0.6-0.2,0.9-0.4c0.5-0.2,1-0.5,1.5-0.6c0.9-0.2,2.2-0.2,3,0.7l-0.8,0.7c-0.4-0.5-1.3-0.5-1.8-0.4
		c-0.5,0.1-0.9,0.3-1.4,0.5c-0.3,0.1-0.6,0.3-1,0.4c-1.8,0.7-4,0.6-6-0.3C267.6,556.9,267.1,556.7,266.7,556.4z M261.3,535.9
		c-1.7,0.6-3,2.2-3.5,4.2c-0.5,2.2,0.2,4.3,0.8,5.7c0.2,0.5,0.5,1,0.8,1.5c0.8,0,1.6-0.1,2.4-0.3c2.4-0.6,4.3-2.2,5.2-4.1
		c0.9-2.1,0.4-4.8-1.2-6.1c-0.4-0.3-0.8-0.6-1.2-0.7C263.4,535.6,262.3,535.5,261.3,535.9z M238.7,484.8c-1.3,0.5-2.3,1.8-2.3,3.1
		c0,1,0.4,2,1.4,3.3c1.3,1.7,3,3.2,4.7,4.7c0,0,0,0,0,0l0.8-2c0.6-1.4,1.2-3,1.2-4.6c0-1.5-0.7-2.9-1.8-3.8
		c-0.4-0.3-0.7-0.5-1.2-0.7C240.6,484.5,239.6,484.4,238.7,484.8z"/>
	<path class="st0" d="M292.4,547.8c-0.7,3.4-1.9,5.8-3.5,7.6c-2.1,2.2-5.1,3.2-7.7,2.5c0.2,0.2,0.4,0.5,0.5,0.7
		c3.3,4.5,5.6,9.8,6.9,15.2l-1.1,0.3c-1.2-5.3-3.6-10.4-6.7-14.8c-1.1-1.5-2.3-3-3.8-3l-0.1-1.1c1.2-0.1,2,0.4,2.8,0.9
		c0.4,0.3,0.9,0.6,1.4,0.8c2.5,0.8,5.3-0.5,6.8-2.2c1.5-1.6,2.6-3.9,3.3-7.1L292.4,547.8z"/>
	
		<ellipse transform="matrix(0.9292 -0.3697 0.3697 0.9292 -195.2306 146.8108)" class="st7" cx="285.4" cy="582.8" rx="1" ry="4.9"/>
	<path class="st0" d="M286.5,586.7c0.3,1,2.1,1.6,2.8,0.6c1-1.4,1.7-2.9,1.8-3.3l0.7,1.9c0.2,0.5,0.8,0.7,1.4,0.5l0.1,0
		c0.5-0.2,0.8-0.8,0.6-1.3l-5.3-13.3l-2.1,0.8l2.2,5.5c-0.4-0.1-2.6-0.8-3.2-1c-0.8-0.3-1.4,0.1-1.4,0.1c-0.2,0.1-0.4,0.3-0.5,0.4
		c-0.3,0.4-0.5,1-0.2,1.4C284.4,580.4,286.2,585.6,286.5,586.7z"/>
	<path class="st8" d="M285.6,567L285.6,567c0.6-0.2,1.2,0.1,1.5,0.6l2.2,5.6l-2.1,0.8l-2.2-5.6C284.7,567.9,285,567.2,285.6,567z"/>
	<ellipse transform="matrix(0.3697 -0.9291 0.9291 0.3697 -314.961 607.6163)" class="st7" cx="290.4" cy="536" rx="4.9" ry="1"/>
	<path class="st0" d="M291.5,532c0.3-1,2.1-1.6,2.8-0.6c1,1.4,1.7,2.9,1.8,3.3l0.7-1.9c0.2-0.5,0.8-0.7,1.4-0.5l0.1,0
		c0.5,0.2,0.8,0.8,0.6,1.3l-5.3,13.3l-2.1-0.8l2.2-5.5c-0.4,0.1-2.6,0.8-3.2,1c-0.8,0.3-1.4-0.1-1.4-0.1c-0.2-0.1-0.4-0.3-0.5-0.4
		c-0.3-0.4-0.5-1-0.2-1.4C289.3,538.3,291.1,533.2,291.5,532z"/>
	<path class="st8" d="M290.5,551.8L290.5,551.8c0.6,0.2,1.2-0.1,1.5-0.6l2.2-5.6l-2.1-0.8l-2.2,5.6
		C289.7,550.9,290,551.5,290.5,551.8z"/>
	<g>
		<path class="st9" d="M254.7,407.4c1.5,0,3,0.1,4.5,0.3c14.9,2.2,26.4,15,26.4,30.6c0,0.4,0,0.9,0,1.3
			c-0.7,16.5-14.3,29.6-30.9,29.6c-17.1,0-30.9-13.8-30.9-30.9C223.8,421.2,237.6,407.4,254.7,407.4z"/>
		<path class="st0" d="M222.9,438.3c0,17.5,14.3,31.8,31.8,31.8c17.1,0,31-13.4,31.8-30.4c0-0.3,0-0.7,0-1l-0.9,0.9l-0.9,0.9
			c-1.1,15.7-14.1,27.8-29.9,27.8c-16.6,0-30-13.5-30-30c0-16.6,13.5-30,30-30c1.2,0,2.4,0.1,3.6,0.2l0.8-0.8l0.8-0.8
			c-0.2,0-0.4-0.1-0.6-0.1c-1.5-0.2-3.1-0.3-4.6-0.3C237.2,406.5,222.9,420.8,222.9,438.3z"/>
	</g>
	<path class="st5" d="M259.9,406.9c15.2,2.5,26.6,15.9,26.6,31.4c0,0.1,0,0.3,0,0.4l-0.9,0.9l-0.9,0.9c0-0.3,0-0.6,0.1-0.9
		c0-0.4,0-0.9,0-1.3c0-14.8-11-27.6-25.7-29.7c-0.2,0-0.5-0.1-0.8-0.1l0.8-0.8L259.9,406.9z"/>
	<path class="st10" d="M258.3,408.5c0.2,0,0.5,0.1,0.8,0.1c14.6,2.1,25.7,14.9,25.7,29.7c0,0.4,0,0.9,0,1.3c0,0.3,0,0.6-0.1,0.9
		l-27.5,27.2l-14.1-43.9L258.3,408.5z"/>
	<path class="st11" d="M257.2,466.8V456c0,0,0,0,0,0h-4.4c-0.2,0-0.4,0.2-0.4,0.4v10.3c0,1.3,1.1,2.4,2.4,2.4l0,0
		C256.1,469.1,257.2,468.1,257.2,466.8z"/>
	<circle class="st11" cx="254.7" cy="438.3" r="18.5"/>
	<path class="st12" d="M254.7,423c8.4,0,15.3,6.8,15.3,15.3c0,4.8-2.2,9.1-5.7,11.9c-2.6,2.1-6,3.4-9.6,3.4
		c-8.4,0-15.3-6.8-15.3-15.3c0-5.9,3.4-11.1,8.4-13.6C249.9,423.6,252.2,423,254.7,423z"/>
	<path class="st13" d="M254.7,423c8.4,0,15.3,6.8,15.3,15.3c0,4.8-2.2,9.1-5.7,11.9c-2.1,1.1-4.4,1.7-6.9,1.7
		c-8.4,0-15.3-6.8-15.3-15.3c0-4.8,2.2-9.1,5.7-11.9C249.9,423.6,252.2,423,254.7,423z"/>
	<path class="st11" d="M91,375.6l32.9,37.9l-63.5,55.2l-32.9-37.9c-2-2.3-1.7-5.7,0.5-7.7l3.4-3l0.1-0.1l3.2-2.8L35,417l3.1-2.7
		l0.1-0.1l3.1-2.7l0.1-0.1l3.1-2.7l0.1-0.1l38.5-33.5c0.3-0.2,0.6-0.5,0.9-0.6c0.1,0,0.1-0.1,0.2-0.1
		C86.5,373.2,89.3,373.7,91,375.6z"/>
	
		<ellipse transform="matrix(0.7547 -0.656 0.656 0.7547 -288.9711 153.7209)" class="st14" cx="61.1" cy="463.3" rx="1.4" ry="1.1"/>
	<ellipse transform="matrix(0.7547 -0.656 0.656 0.7547 -283.539 156.6683)" class="st14" cx="67.8" cy="457.5" rx="1.4" ry="1.1"/>
	
		<ellipse transform="matrix(0.7547 -0.656 0.656 0.7547 -278.3784 159.5831)" class="st14" cx="74.2" cy="452.1" rx="1.4" ry="1.1"/>
	
		<ellipse transform="matrix(0.7547 -0.656 0.656 0.7547 -272.8383 162.3307)" class="st14" cx="80.7" cy="446.1" rx="1.4" ry="1.1"/>
	<ellipse transform="matrix(0.7548 -0.656 0.656 0.7548 -267.63 165.1578)" class="st14" cx="87.1" cy="440.5" rx="1.4" ry="1.1"/>
	<ellipse transform="matrix(0.7547 -0.656 0.656 0.7547 -262.4239 167.9879)" class="st14" cx="93.5" cy="435" rx="1.4" ry="1.1"/>
	
		<ellipse transform="matrix(0.7548 -0.656 0.656 0.7548 -257.2143 170.8132)" class="st14" cx="99.8" cy="429.4" rx="1.4" ry="1.1"/>
	
		<ellipse transform="matrix(0.7547 -0.656 0.656 0.7547 -251.5481 173.8931)" class="st14" cx="106.8" cy="423.4" rx="1.4" ry="1.1"/>
	
		<ellipse transform="matrix(0.7547 -0.656 0.656 0.7547 -246.2261 176.7845)" class="st14" cx="113.3" cy="417.7" rx="1.4" ry="1.1"/>
	<path class="st15" d="M60.4,463.1l5.1,5.8c0.1,0.1,0.1,0.3,0,0.4l0,0c-0.1,0.1-0.3,0.1-0.4,0l-5.1-5.8c-0.1-0.1-0.1-0.3,0-0.4l0,0
		C60.1,462.9,60.3,462.9,60.4,463.1z"/>
	<path class="st15" d="M61.5,462.2l5.1,5.8c0.1,0.1,0.1,0.3,0,0.4l0,0c-0.1,0.1-0.3,0.1-0.4,0l-5.1-5.8c-0.1-0.1-0.1-0.3,0-0.4l0,0
		C61.2,462.1,61.4,462.1,61.5,462.2z"/>
	<path class="st15" d="M67,457.3l5.1,5.8c0.1,0.1,0.1,0.3,0,0.4l0,0c-0.1,0.1-0.3,0.1-0.4,0l-5.1-5.8c-0.1-0.1-0.1-0.3,0-0.4l0,0
		C66.7,457.2,66.9,457.2,67,457.3z"/>
	<path class="st15" d="M68,456.4l5.1,5.8c0.1,0.1,0.1,0.3,0,0.4l0,0c-0.1,0.1-0.3,0.1-0.4,0l-5.1-5.8c-0.1-0.1-0.1-0.3,0-0.4l0,0
		C67.8,456.3,67.9,456.3,68,456.4z"/>
	<path class="st15" d="M73.5,451.9l5.1,5.8c0.1,0.1,0.1,0.3,0,0.4l0,0c-0.1,0.1-0.3,0.1-0.4,0l-5.1-5.8c-0.1-0.1-0.1-0.3,0-0.4l0,0
		C73.2,451.7,73.4,451.7,73.5,451.9z"/>
	<path class="st15" d="M74.5,451l5.1,5.8c0.1,0.1,0.1,0.3,0,0.4l0,0c-0.1,0.1-0.3,0.1-0.4,0l-5.1-5.8c-0.1-0.1-0.1-0.3,0-0.4v0
		C74.2,450.8,74.4,450.9,74.5,451z"/>
	<path class="st15" d="M79.9,445.8l5.1,5.8c0.1,0.1,0.1,0.3,0,0.4l0,0c-0.1,0.1-0.3,0.1-0.4,0l-5.1-5.8c-0.1-0.1-0.1-0.3,0-0.4l0,0
		C79.7,445.7,79.8,445.7,79.9,445.8z"/>
	<path class="st15" d="M81,444.9l5.1,5.8c0.1,0.1,0.1,0.3,0,0.4h0c-0.1,0.1-0.3,0.1-0.4,0l-5.1-5.8c-0.1-0.1-0.1-0.3,0-0.4l0,0
		C80.7,444.8,80.9,444.8,81,444.9z"/>
	<path class="st15" d="M86.3,440.3l5.1,5.8c0.1,0.1,0.1,0.3,0,0.4l0,0c-0.1,0.1-0.3,0.1-0.4,0l-5.1-5.8c-0.1-0.1-0.1-0.3,0-0.4l0,0
		C86.1,440.2,86.2,440.2,86.3,440.3z"/>
	<path class="st15" d="M87.3,439.4l5.1,5.8c0.1,0.1,0.1,0.3,0,0.4l0,0c-0.1,0.1-0.3,0.1-0.4,0l-5.1-5.8c-0.1-0.1-0.1-0.3,0-0.4l0,0
		C87.1,439.3,87.2,439.3,87.3,439.4z"/>
	<path class="st15" d="M92.7,434.7l5.1,5.8c0.1,0.1,0.1,0.3,0,0.4l0,0c-0.1,0.1-0.3,0.1-0.4,0l-5.1-5.8c-0.1-0.1-0.1-0.3,0-0.4v0
		C92.4,434.6,92.6,434.6,92.7,434.7z"/>
	<path class="st15" d="M93.7,433.8l5.1,5.8c0.1,0.1,0.1,0.3,0,0.4l0,0c-0.1,0.1-0.3,0.1-0.4,0l-5.1-5.8c-0.1-0.1-0.1-0.3,0-0.4l0,0
		C93.5,433.7,93.6,433.7,93.7,433.8z"/>
	<path class="st15" d="M99.1,429.2l5.1,5.8c0.1,0.1,0.1,0.3,0,0.4l0,0c-0.1,0.1-0.3,0.1-0.4,0l-5.1-5.8c-0.1-0.1-0.1-0.3,0-0.4l0,0
		C98.8,429,99,429.1,99.1,429.2z"/>
	<path class="st15" d="M100.1,428.3l5.1,5.8c0.1,0.1,0.1,0.3,0,0.4l0,0c-0.1,0.1-0.3,0.1-0.4,0l-5.1-5.8c-0.1-0.1-0.1-0.3,0-0.4l0,0
		C99.8,428.2,100,428.2,100.1,428.3z"/>
	<path class="st15" d="M106,423.1l5.1,5.8c0.1,0.1,0.1,0.3,0,0.4l0,0c-0.1,0.1-0.3,0.1-0.4,0l-5.1-5.8c-0.1-0.1-0.1-0.3,0-0.4l0,0
		C105.8,423,105.9,423,106,423.1z"/>
	<path class="st15" d="M107.1,422.2l5.1,5.8c0.1,0.1,0.1,0.3,0,0.4l0,0c-0.1,0.1-0.3,0.1-0.4,0l-5.1-5.8c-0.1-0.1-0.1-0.3,0-0.4l0,0
		C106.8,422.1,107,422.1,107.1,422.2z"/>
	<path class="st15" d="M112.6,417.5l5.1,5.8c0.1,0.1,0.1,0.3,0,0.4l0,0c-0.1,0.1-0.3,0.1-0.4,0l-5.1-5.8c-0.1-0.1-0.1-0.3,0-0.4l0,0
		C112.3,417.3,112.5,417.4,112.6,417.5z"/>
	<path class="st15" d="M113.6,416.6l5.1,5.8c0.1,0.1,0.1,0.3,0,0.4l0,0c-0.1,0.1-0.3,0.1-0.4,0l-5.1-5.8c-0.1-0.1-0.1-0.3,0-0.4l0,0
		C113.3,416.5,113.5,416.5,113.6,416.6z"/>
	
		<rect x="53.1" y="410.3" transform="matrix(0.7547 -0.656 0.656 0.7547 -274.3459 142.3581)" class="st14" width="0.2" height="55.6"/>
	
		<rect x="49.7" y="413.2" transform="matrix(0.7548 -0.656 0.656 0.7548 -277.1035 140.8571)" class="st14" width="0.2" height="55.6"/>
	
		<rect x="46.8" y="415.8" transform="matrix(0.7548 -0.656 0.656 0.7548 -279.5194 139.547)" class="st14" width="0.2" height="55.6"/>
	
		<rect x="56.4" y="407.5" transform="matrix(0.7548 -0.656 0.656 0.7548 -271.6992 143.7921)" class="st14" width="0.2" height="55.6"/>
	
		<rect x="59.6" y="404.6" transform="matrix(0.7548 -0.656 0.656 0.7548 -269.0545 145.2281)" class="st14" width="0.2" height="55.6"/>
	
		<rect x="62.9" y="401.8" transform="matrix(0.7548 -0.656 0.656 0.7548 -266.4098 146.6645)" class="st14" width="0.2" height="55.6"/>
	
		<rect x="66.1" y="399" transform="matrix(0.7548 -0.656 0.656 0.7548 -263.7571 148.0852)" class="st14" width="0.2" height="55.7"/>
	
		<rect x="69.3" y="396.1" transform="matrix(0.7548 -0.656 0.656 0.7548 -261.1124 149.5214)" class="st14" width="0.2" height="55.7"/>
	
		<rect x="72.4" y="393.4" transform="matrix(0.7548 -0.656 0.656 0.7548 -258.5828 150.8952)" class="st14" width="0.2" height="55.7"/>
	
		<rect x="75.8" y="390.5" transform="matrix(0.7548 -0.656 0.656 0.7548 -255.8231 152.3939)" class="st14" width="0.2" height="55.7"/>
	
		<rect x="78.9" y="387.8" transform="matrix(0.7548 -0.656 0.656 0.7548 -253.2935 153.7678)" class="st14" width="0.2" height="55.7"/>
	
		<rect x="82" y="385.1" transform="matrix(0.7548 -0.656 0.656 0.7548 -250.7638 155.1415)" class="st14" width="0.2" height="55.7"/>
	
		<rect x="85.4" y="382.2" transform="matrix(0.7548 -0.656 0.656 0.7548 -248.0041 156.6402)" class="st14" width="0.2" height="55.7"/>
	
		<rect x="88.9" y="379.1" transform="matrix(0.7548 -0.656 0.656 0.7548 -245.1295 158.2014)" class="st14" width="0.2" height="55.7"/>
	
		<rect x="92.3" y="376.2" transform="matrix(0.7548 -0.656 0.656 0.7548 -242.3698 159.7001)" class="st14" width="0.2" height="55.7"/>
	
		<rect x="95.6" y="373.3" transform="matrix(0.7548 -0.656 0.656 0.7548 -239.7251 161.1364)" class="st14" width="0.2" height="55.7"/>
	
		<rect x="98.9" y="370.4" transform="matrix(0.7548 -0.656 0.656 0.7548 -236.9655 162.6351)" class="st14" width="0.2" height="55.7"/>
	<path class="st14" d="M84.4,374.4l36.4,41.9l-0.1,0.1l-36.4-41.9C84.2,374.4,84.3,374.4,84.4,374.4z"/>
	<rect x="33" y="522" transform="matrix(-0.6748 0.738 -0.738 -0.6748 505.7869 881.9645)" class="st16" width="51" height="60.8"/>
	
		<rect x="110.9" y="257.8" transform="matrix(0.9201 -0.3917 0.3917 0.9201 -101.9939 76.4522)" class="st16" width="51" height="60.8"/>
	<path class="st17" d="M27.3,523.5l34.8,6.1c0.2,0,0.4-0.2,0.5-0.6l0.6-3.3c0.1-0.3-0.1-0.7-0.3-0.7L28.1,519c0,0-0.1,0-0.1,0
		L27.3,523.5C27.3,523.5,27.3,523.5,27.3,523.5z"/>
	<path class="st18" d="M63,527.1l0.2-1.4c0.1-0.3-0.1-0.7-0.3-0.7L28.1,519c0,0-0.1,0-0.1,0l-0.2,1.4c0,0,0,0,0.1,0c0,0,0,0,0,0
		l34.8,6.1C62.9,526.5,63,526.8,63,527.1z"/>
	<path class="st19" d="M27.6,521.9l34.8,6.1c0.2,0,0.4,0,0.4-0.2l0.2-1.2c0-0.1-0.1-0.3-0.3-0.3l-34.8-6.1c0,0,0,0,0,0
		c0,0,0,0-0.1,0L27.6,521.9C27.5,521.9,27.6,521.9,27.6,521.9z"/>
	<path class="st3" d="M28,518.9c0,0-7.9,0.7-7.9,1c-0.1,0.3,7.1,3.6,7.1,3.6L28,518.9z"/>
	<path class="st20" d="M22.8,519.5c0,0-2.8,0.3-2.8,0.4c0,0.2,2.5,1.4,2.5,1.4L22.8,519.5z"/>
	<path class="st21" d="M148,382.8c-1.1,2.3-0.2,5.1,2.1,6.2l28.8,14.1c2.3,1.1,5.1,0.2,6.2-2.1l19.5-40c1.1-2.3,0.2-5.1-2.1-6.2
		l-28.8-14.1c-2.3-1.1-5.1-0.2-6.2,2.1L148,382.8z"/>
	<path class="st22" d="M192.1,386.8l-11.9,16.7c-0.4,0-1.2-0.5-1.7-0.7l-13.5-6.7c0,0-17.2-12.5-17.3-12.6l8.2-16l16.8-25.1l0.8,0.3
		l20.6,39.8L192.1,386.8z"/>
	<path class="st23" d="M147.5,375.8c-1.5,2-1.1,5,0.9,6.5l25.7,19.2c2,1.5,5,1.1,6.5-0.9l26.7-35.6c1.5-2,1.1-5-0.9-6.5l-25.7-19.2
		c-2-1.5-5-1.1-6.5,0.9L147.5,375.8z"/>
	<path class="st24" d="M201.2,355.4l-5.6,8.6c0,0-1,1,0.2,1.9c1.1,0.9,7.9,4,7.9,4L201.2,355.4z"/>
	<path class="st25" d="M201.5,354.9l-5.5,7.6c0,0-1,1,0.2,1.9c1.1,0.9,7.5,5.5,7.5,5.5L201.5,354.9z"/>
	<path class="st22" d="M188.9,376.6c-0.2,0.3-0.6,0.3-0.9,0.1L168.3,362c-0.3-0.2-0.3-0.6-0.1-0.9l0,0c0.2-0.3,0.6-0.3,0.9-0.1
		l19.7,14.7C189,375.9,189.1,376.3,188.9,376.6L188.9,376.6z"/>
	<path class="st22" d="M181.5,374.4c-0.2,0.3-0.6,0.3-0.9,0.1l-13.9-10.5c-0.3-0.2-0.3-0.6-0.1-0.9l0,0c0.2-0.3,0.6-0.3,0.9-0.1
		l13.9,10.5C181.7,373.7,181.8,374.1,181.5,374.4L181.5,374.4z"/>
	<path class="st22" d="M185.7,381c-0.2,0.3-0.6,0.3-0.9,0.1l-19.7-14.8c-0.3-0.2-0.3-0.6-0.1-0.9l0,0c0.2-0.3,0.6-0.3,0.9-0.1
		l19.7,14.8C185.8,380.3,185.9,380.7,185.7,381L185.7,381z"/>
	<path class="st22" d="M176.2,377.8c-0.2,0.3-0.6,0.3-0.9,0.1l-12-9c-0.3-0.2-0.3-0.6-0.1-0.9l0,0c0.2-0.3,0.6-0.3,0.9-0.1l12,9
		C176.3,377.1,176.4,377.5,176.2,377.8L176.2,377.8z"/>
	<path class="st22" d="M176.8,381.8c-0.2,0.3-0.6,0.3-0.9,0.1l-14.3-10.8c-0.3-0.2-0.3-0.6-0.1-0.9l0,0c0.2-0.3,0.6-0.3,0.9-0.1
		l14.3,10.8C176.9,381.1,177,381.5,176.8,381.8L176.8,381.8z"/>
	<path class="st22" d="M180.4,388.3c-0.2,0.3-0.6,0.3-0.9,0.1l-19.7-14.8c-0.3-0.2-0.3-0.6-0.1-0.9l0,0c0.2-0.3,0.6-0.3,0.9-0.1
		l19.7,14.8C180.6,387.6,180.6,388,180.4,388.3L180.4,388.3z"/>
	<path class="st22" d="M178.8,390.5c-0.2,0.3-0.6,0.3-0.9,0.1l-19.7-14.7c-0.3-0.2-0.3-0.6-0.1-0.9l0,0c0.2-0.3,0.6-0.3,0.9-0.1
		l19.7,14.8C178.9,389.8,179,390.2,178.8,390.5L178.8,390.5z"/>
	<path class="st20" d="M188,331.5l34.6,7.2c0.2,0,0.4-0.2,0.5-0.5l0.7-3.3c0.1-0.3,0-0.7-0.3-0.7l-34.6-7.2c0,0-0.1,0-0.1,0
		L188,331.5C188,331.5,188,331.5,188,331.5z"/>
	<path class="st15" d="M223.6,336.2l0.3-1.3c0.1-0.3,0-0.7-0.3-0.7l-34.6-7.2c0,0-0.1,0-0.1,0l-0.3,1.3c0,0,0,0,0.1,0c0,0,0,0,0,0
		l34.6,7.2C223.5,335.5,223.6,335.8,223.6,336.2z"/>
	<path class="st26" d="M188.4,329.9l34.6,7.2c0.2,0,0.4,0,0.4-0.1l0.2-1.2c0-0.1-0.1-0.3-0.3-0.3l-34.6-7.2c0,0,0,0,0,0
		c0,0,0,0-0.1,0L188.4,329.9C188.3,329.8,188.4,329.9,188.4,329.9z"/>
	<path class="st13" d="M188.9,326.9c0,0-7.9,0.4-8,0.7c-0.1,0.3,7,3.8,7,3.8L188.9,326.9z"/>
	<path class="st23" d="M183.7,327.3c0,0-2.8,0.2-2.8,0.3c0,0.2,2.4,1.4,2.4,1.4L183.7,327.3z"/>
	<path class="st27" d="M183.6,351.8l28.9-20.4c0.2-0.1,0.2-0.5,0-0.7l-2-2.8c-0.2-0.3-0.5-0.4-0.7-0.3L180.9,348c0,0,0,0-0.1,0.1
		L183.6,351.8C183.5,351.8,183.5,351.8,183.6,351.8z"/>
	<path class="st28" d="M211.2,329l-0.8-1.1c-0.2-0.3-0.5-0.4-0.7-0.3L180.9,348c0,0,0,0-0.1,0.1l0.8,1.1c0,0,0,0,0-0.1c0,0,0,0,0,0
		l28.9-20.4C210.7,328.6,211,328.7,211.2,329z"/>
	<path class="st29" d="M182.6,350.4l28.9-20.4c0.2-0.1,0.3-0.3,0.2-0.4l-0.7-1c-0.1-0.1-0.3-0.1-0.4,0l-28.9,20.4c0,0,0,0,0,0
		c0,0,0,0-0.1,0L182.6,350.4C182.6,350.5,182.6,350.5,182.6,350.4z"/>
	<path class="st30" d="M180.8,348c0,0-5.1,6.1-4.9,6.3c0.1,0.2,7.6-2.5,7.6-2.5L180.8,348z"/>
	<path class="st29" d="M177.5,352.1c0,0-1.8,2.2-1.7,2.3c0.1,0.1,2.7-0.8,2.7-0.8L177.5,352.1z"/>
	<path class="st26" d="M91.1,271.1c2,0.6,23.8,23.6,42.5,45.5c19.4,22.7,50.3,79.7,50.3,79.7c15.7,39.4,23.3,103.1,23.3,103.1
		l-0.9,40.4l-68.5-0.8l2.4-104.9c-11.1-17.1-22.7-61.3-27.4-73.3c-0.8-2-1.2-3.1-1.2-3.1c-5.1-5.9-5.4-13.6-7.7-17.8
		c-3.2-5.7-5.4-11.2-9.8-16.1c-4.2-4.6-6.5-11.6-9.6-16.6c-4.6-7.4-9.2-12.4-10.5-15.3c-0.4-1-0.7-1.5-0.7-1.5
		C73.8,270.2,91.1,271.1,91.1,271.1z"/>
	<path class="st14" d="M73.9,292.1c20.6,20.5,83.8,93.9,83.8,93.9l-27.3,0.8c-0.8-2-20-30.5-20-30.5c-4.1-7.7-10.4-19.2-12.9-23.5
		c-4.8-8.3-12.6-22-16.1-27.9C78,299.1,73.9,292.1,73.9,292.1z"/>
	<path class="st15" d="M173.9,242.1l-3.9,22.7c0,0-13.7,56.7-16.2,78.8c0,0-6.7,53.5-8.3,72.1c0,0-4.7,102.9-5.8,117.9L97,542.3
		l-20-40c0,0,7.7-44.6,16.5-90.3c7-36.3,14.8-73.3,19.9-89.1l13.7-41.3c1.5-4.5,8.6-23.8,11.6-28.7c1.9-3.2,1.6-7.1,7.6-11.2
		c0,0,4.6-8.2,13.3-13.4c0,0-1.1-4.4,1.9-4.6C164.6,223.4,173.9,231.4,173.9,242.1z"/>
	<path class="st14" d="M49.5,218.5c17.2,0,24.6,17.7,27.3,26.9c1.2,4,2.9,7.9,5.1,11.5l7,11.3c0,0-16.4,0.8-18.1,19l-26.1-31.3
		l-5.8-6.9c-4.4-5-8.6-13.3-6.5-19.7c1-3,2.7-5.9,5.8-7.9h0C40.9,219.6,44.5,218.5,49.5,218.5z"/>
	<path class="st31" d="M210.7,556.7c0,0,4.1-21.3-0.8-22.3c-55.5-10.6-136.1-1.1-136.1-1.1l2.1,27.7L210.7,556.7z"/>
	<path class="st20" d="M146.4,241.6c-26,48.9-46.1,172.2-46.1,172.2l-6.8-1.8c7-36.3,14.8-73.3,19.9-89.1l13.7-41.3
		c1.5-4.5,7.7-23.3,10.3-28.5C139.8,248.4,144.1,242.7,146.4,241.6z"/>
	<path class="st32" d="M160.5,523.1h-36.9c-23.7,0-42.8-19.2-42.8-42.8v0c0-23.7,19.2-42.8,42.8-42.8h36.9
		c23.7,0,42.8,19.2,42.8,42.8v0C203.4,504,184.2,523.1,160.5,523.1z"/>
	<path class="st33" d="M173.5,486.8h-63.4c-12.1,0-22-9.8-22-22v0c0-12.1,9.8-22,22-22h63.4c12.1,0,22,9.8,22,22v0
		C195.5,476.9,185.6,486.8,173.5,486.8z"/>
	<path class="st8" d="M147.7,519.5h-10.9c-8,0-14.5-6.5-14.5-14.5v0c0-8,6.5-14.5,14.5-14.5h10.9c8,0,14.5,6.5,14.5,14.5v0
		C162.2,513,155.7,519.5,147.7,519.5z"/>
	<g>
		<path class="st0" d="M94.8,449.1h-2.6c-1.1,0-2-0.9-2-2v0c0-1.1,0.9-2,2-2h2.6c1.1,0,2,0.9,2,2v0
			C96.8,448.2,95.9,449.1,94.8,449.1z"/>
		<path class="st0" d="M102.3,449.1h-2.6c-1.1,0-2-0.9-2-2v0c0-1.1,0.9-2,2-2h2.6c1.1,0,2,0.9,2,2v0
			C104.3,448.2,103.4,449.1,102.3,449.1z"/>
		<path class="st0" d="M109.7,449.1h-2.6c-1.1,0-2-0.9-2-2v0c0-1.1,0.9-2,2-2h2.6c1.1,0,2,0.9,2,2v0
			C111.8,448.2,110.9,449.1,109.7,449.1z"/>
		<path class="st0" d="M117.2,449.1h-2.6c-1.1,0-2-0.9-2-2v0c0-1.1,0.9-2,2-2h2.6c1.1,0,2,0.9,2,2l0,0
			C119.2,448.2,118.3,449.1,117.2,449.1z"/>
		<path class="st0" d="M124.6,449.1h-2.6c-1.1,0-2-0.9-2-2l0,0c0-1.1,0.9-2,2-2h2.6c1.1,0,2,0.9,2,2v0
			C126.7,448.2,125.8,449.1,124.6,449.1z"/>
		<path class="st0" d="M132.1,449.1h-2.6c-1.1,0-2-0.9-2-2v0c0-1.1,0.9-2,2-2h2.6c1.1,0,2,0.9,2,2v0
			C134.1,448.2,133.2,449.1,132.1,449.1z"/>
		<path class="st0" d="M139.6,449.1H137c-1.1,0-2-0.9-2-2v0c0-1.1,0.9-2,2-2h2.6c1.1,0,2,0.9,2,2v0
			C141.6,448.2,140.7,449.1,139.6,449.1z"/>
		<path class="st0" d="M147,449.1h-2.6c-1.1,0-2-0.9-2-2v0c0-1.1,0.9-2,2-2h2.6c1.1,0,2,0.9,2,2v0
			C149.1,448.2,148.2,449.1,147,449.1z"/>
		<path class="st0" d="M154.5,449.1h-2.6c-1.1,0-2-0.9-2-2v0c0-1.1,0.9-2,2-2h2.6c1.1,0,2,0.9,2,2l0,0
			C156.5,448.2,155.6,449.1,154.5,449.1z"/>
		<path class="st0" d="M161.9,449.1h-2.6c-1.1,0-2-0.9-2-2l0,0c0-1.1,0.9-2,2-2h2.6c1.1,0,2,0.9,2,2v0
			C164,448.2,163.1,449.1,161.9,449.1z"/>
		<path class="st0" d="M169.4,449.1h-2.6c-1.1,0-2-0.9-2-2v0c0-1.1,0.9-2,2-2h2.6c1.1,0,2,0.9,2,2l0,0
			C171.4,448.2,170.5,449.1,169.4,449.1z"/>
		<path class="st0" d="M176.9,449.1h-2.6c-1.1,0-2-0.9-2-2v0c0-1.1,0.9-2,2-2h2.6c1.1,0,2,0.9,2,2l0,0
			C178.9,448.2,178,449.1,176.9,449.1z"/>
		<path class="st0" d="M184.3,449.1h-2.6c-1.1,0-2-0.9-2-2v0c0-1.1,0.9-2,2-2h2.6c1.1,0,2,0.9,2,2v0
			C186.4,448.2,185.4,449.1,184.3,449.1z"/>
		<path class="st0" d="M191.8,449.1h-2.6c-1.1,0-2-0.9-2-2v0c0-1.1,0.9-2,2-2h2.6c1.1,0,2,0.9,2,2l0,0
			C193.8,448.2,192.9,449.1,191.8,449.1z"/>
		<path class="st0" d="M93.4,455.7L93.4,455.7c-1.7,0-3-1.4-3-3v0c0-1.7,1.4-3,3-3h0c1.7,0,3,1.4,3,3v0
			C96.5,454.4,95.1,455.7,93.4,455.7z"/>
		<path class="st0" d="M104.4,462.7L104.4,462.7c-1.7,0-3-1.4-3-3l0,0c0-1.7,1.4-3,3-3h0c1.7,0,3,1.4,3,3v0
			C107.4,461.4,106.1,462.7,104.4,462.7z"/>
		<path class="st0" d="M106,469.7L106,469.7c-1.7,0-3-1.4-3-3v0c0-1.7,1.4-3,3-3l0,0c1.7,0,3,1.4,3,3v0
			C109,468.3,107.7,469.7,106,469.7z"/>
		<path class="st0" d="M109.8,476.7L109.8,476.7c-1.7,0-3-1.4-3-3l0,0c0-1.7,1.4-3,3-3h0c1.7,0,3,1.4,3,3v0
			C112.8,475.3,111.4,476.7,109.8,476.7z"/>
		<path class="st0" d="M93.4,484.4L93.4,484.4c-1.7,0-3-1.4-3-3v-0.8c0-1.7,1.4-3,3-3h0c1.7,0,3,1.4,3,3v0.8
			C96.5,483.1,95.1,484.4,93.4,484.4z"/>
		<path class="st0" d="M100.8,484.4L100.8,484.4c-1.7,0-3-1.4-3-3v-0.8c0-1.7,1.4-3,3-3h0c1.7,0,3,1.4,3,3v0.8
			C103.8,483.1,102.5,484.4,100.8,484.4z"/>
		<path class="st0" d="M107.9,484.4L107.9,484.4c-1.7,0-3-1.4-3-3v-0.8c0-1.7,1.4-3,3-3l0,0c1.7,0,3,1.4,3,3v0.8
			C110.9,483.1,109.6,484.4,107.9,484.4z"/>
		<path class="st0" d="M116.6,484.4h-1.1c-1.9,0-3.4-1.5-3.4-3.4v0c0-1.9,1.5-3.4,3.4-3.4h1.1c1.9,0,3.4,1.5,3.4,3.4v0
			C120,482.9,118.4,484.4,116.6,484.4z"/>
		<path class="st0" d="M161.3,484.4h-1.1c-1.9,0-3.4-1.5-3.4-3.4v0c0-1.9,1.5-3.4,3.4-3.4h1.1c1.9,0,3.4,1.5,3.4,3.4v0
			C164.7,482.9,163.1,484.4,161.3,484.4z"/>
		<path class="st0" d="M169,484.4L169,484.4c-1.6,0-3-1.3-3-3v-0.9c0-1.6,1.3-3,3-3l0,0c1.6,0,3,1.3,3,3v0.9
			C172,483.1,170.6,484.4,169,484.4z"/>
		<path class="st0" d="M152.5,484.4h-28c-1.9,0-3.4-1.5-3.4-3.4l0,0c0-1.9,1.5-3.4,3.4-3.4h28c1.9,0,3.4,1.5,3.4,3.4l0,0
			C155.9,482.9,154.4,484.4,152.5,484.4z"/>
		<path class="st0" d="M116.9,476.7L116.9,476.7c-1.7,0-3-1.4-3-3v0c0-1.7,1.4-3,3-3h0c1.7,0,3,1.4,3,3l0,0
			C120,475.3,118.6,476.7,116.9,476.7z"/>
		<path class="st0" d="M124.1,476.7L124.1,476.7c-1.7,0-3-1.4-3-3v0c0-1.7,1.4-3,3-3h0c1.7,0,3,1.4,3,3l0,0
			C127.2,475.3,125.8,476.7,124.1,476.7z"/>
		<path class="st0" d="M131.3,476.7L131.3,476.7c-1.7,0-3-1.4-3-3v0c0-1.7,1.4-3,3-3h0c1.7,0,3,1.4,3,3l0,0
			C134.3,475.3,133,476.7,131.3,476.7z"/>
		<path class="st0" d="M138.5,476.7L138.5,476.7c-1.7,0-3-1.4-3-3v0c0-1.7,1.4-3,3-3h0c1.7,0,3,1.4,3,3l0,0
			C141.5,475.3,140.2,476.7,138.5,476.7z"/>
		<path class="st0" d="M145.7,476.7L145.7,476.7c-1.7,0-3-1.4-3-3v0c0-1.7,1.4-3,3-3h0c1.7,0,3,1.4,3,3v0
			C148.7,475.3,147.4,476.7,145.7,476.7z"/>
		<path class="st0" d="M152.9,476.7L152.9,476.7c-1.7,0-3-1.4-3-3v0c0-1.7,1.4-3,3-3h0c1.7,0,3,1.4,3,3l0,0
			C155.9,475.3,154.6,476.7,152.9,476.7z"/>
		<path class="st0" d="M160.1,476.7L160.1,476.7c-1.7,0-3-1.4-3-3v0c0-1.7,1.4-3,3-3h0c1.7,0,3,1.4,3,3l0,0
			C163.1,475.3,161.8,476.7,160.1,476.7z"/>
		<path class="st0" d="M167.3,476.7L167.3,476.7c-1.7,0-3-1.4-3-3v0c0-1.7,1.4-3,3-3h0c1.7,0,3,1.4,3,3l0,0
			C170.3,475.3,168.9,476.7,167.3,476.7z"/>
		<path class="st0" d="M177.4,484.5h-2.6c-1,0-1.8-0.8-1.8-1.8l0,0c0-1,0.8-1.8,1.8-1.8h2.6c1,0,1.8,0.8,1.8,1.8v0
			C179.2,483.8,178.4,484.5,177.4,484.5z"/>
		<path class="st0" d="M184.6,484.5H182c-1,0-1.8-0.8-1.8-1.8l0,0c0-1,0.8-1.8,1.8-1.8h2.6c1,0,1.8,0.8,1.8,1.8v0
			C186.4,483.8,185.6,484.5,184.6,484.5z"/>
		<path class="st0" d="M184.6,480.6H182c-1,0-1.8-0.8-1.8-1.8l0,0c0-1,0.8-1.8,1.8-1.8h2.6c1,0,1.8,0.8,1.8,1.8l0,0
			C186.4,479.8,185.6,480.6,184.6,480.6z"/>
		<path class="st0" d="M191.8,484.5h-2.6c-1,0-1.8-0.8-1.8-1.8l0,0c0-1,0.8-1.8,1.8-1.8h2.6c1,0,1.8,0.8,1.8,1.8v0
			C193.6,483.8,192.8,484.5,191.8,484.5z"/>
		<path class="st0" d="M113.3,469.7L113.3,469.7c-1.7,0-3-1.4-3-3v0c0-1.7,1.4-3,3-3h0c1.7,0,3,1.4,3,3v0
			C116.3,468.3,114.9,469.7,113.3,469.7z"/>
		<path class="st0" d="M120.5,469.7L120.5,469.7c-1.7,0-3-1.4-3-3l0,0c0-1.7,1.4-3,3-3h0c1.7,0,3,1.4,3,3l0,0
			C123.5,468.3,122.2,469.7,120.5,469.7z"/>
		<path class="st0" d="M127.8,469.7L127.8,469.7c-1.7,0-3-1.4-3-3l0,0c0-1.7,1.4-3,3-3h0c1.7,0,3,1.4,3,3v0
			C130.8,468.3,129.4,469.7,127.8,469.7z"/>
		<path class="st0" d="M135,469.7L135,469.7c-1.7,0-3-1.4-3-3v0c0-1.7,1.4-3,3-3l0,0c1.7,0,3,1.4,3,3l0,0
			C138,468.3,136.6,469.7,135,469.7z"/>
		<path class="st0" d="M142.2,469.7L142.2,469.7c-1.7,0-3-1.4-3-3v0c0-1.7,1.4-3,3-3h0c1.7,0,3,1.4,3,3v0
			C145.3,468.3,143.9,469.7,142.2,469.7z"/>
		<path class="st0" d="M149.2,469.7L149.2,469.7c-1.7,0-3-1.4-3-3l0,0c0-1.7,1.4-3,3-3h0c1.7,0,3,1.4,3,3v0
			C152.2,468.3,150.8,469.7,149.2,469.7z"/>
		<path class="st0" d="M156.4,469.7L156.4,469.7c-1.7,0-3-1.4-3-3l0,0c0-1.7,1.4-3,3-3h0c1.7,0,3,1.4,3,3l0,0
			C159.4,468.3,158,469.7,156.4,469.7z"/>
		<path class="st0" d="M163.6,469.7L163.6,469.7c-1.7,0-3-1.4-3-3v0c0-1.7,1.4-3,3-3h0c1.7,0,3,1.4,3,3l0,0
			C166.6,468.3,165.2,469.7,163.6,469.7z"/>
		<path class="st0" d="M170.7,469.7L170.7,469.7c-1.7,0-3-1.4-3-3l0,0c0-1.7,1.4-3,3-3l0,0c1.7,0,3,1.4,3,3v0
			C173.7,468.3,172.4,469.7,170.7,469.7z"/>
		<path class="st0" d="M177.9,469.7L177.9,469.7c-1.7,0-3-1.4-3-3l0,0c0-1.7,1.4-3,3-3h0c1.7,0,3,1.4,3,3v0
			C180.9,468.3,179.5,469.7,177.9,469.7z"/>
		<path class="st0" d="M174.4,476.7L174.4,476.7c-1.7,0-3-1.4-3-3v0c0-1.7,1.4-3,3-3h0c1.7,0,3,1.4,3,3l0,0
			C177.4,475.3,176.1,476.7,174.4,476.7z"/>
		<path class="st0" d="M190.6,469.7h-5.3c-1.7,0-3-1.4-3-3v0c0-1.7,1.4-3,3-3h5.3c1.7,0,3,1.4,3,3l0,0
			C193.6,468.3,192.3,469.7,190.6,469.7z"/>
		<path class="st0" d="M190.6,476.7h-9.1c-1.7,0-3-1.4-3-3v0c0-1.7,1.4-3,3-3h9.1c1.7,0,3,1.4,3,3l0,0
			C193.6,475.3,192.3,476.7,190.6,476.7z"/>
		<path class="st0" d="M98.9,469.7h-5.5c-1.7,0-3-1.4-3-3v0c0-1.7,1.4-3,3-3h5.5c1.7,0,3,1.4,3,3v0
			C101.9,468.3,100.6,469.7,98.9,469.7z"/>
		<path class="st0" d="M102.6,476.7h-9.3c-1.7,0-3-1.4-3-3v0c0-1.7,1.4-3,3-3h9.3c1.7,0,3,1.4,3,3l0,0
			C105.6,475.3,104.3,476.7,102.6,476.7z"/>
		<path class="st0" d="M111.6,462.7L111.6,462.7c-1.7,0-3-1.4-3-3v0c0-1.7,1.4-3,3-3h0c1.7,0,3,1.4,3,3v0
			C114.6,461.4,113.3,462.7,111.6,462.7z"/>
		<path class="st0" d="M118.8,462.7L118.8,462.7c-1.7,0-3-1.4-3-3v0c0-1.7,1.4-3,3-3h0c1.7,0,3,1.4,3,3v0
			C121.8,461.4,120.4,462.7,118.8,462.7z"/>
		<path class="st0" d="M126,462.7L126,462.7c-1.7,0-3-1.4-3-3v0c0-1.7,1.4-3,3-3h0c1.7,0,3,1.4,3,3v0
			C129,461.4,127.7,462.7,126,462.7z"/>
		<path class="st0" d="M133.2,462.7L133.2,462.7c-1.7,0-3-1.4-3-3v0c0-1.7,1.4-3,3-3h0c1.7,0,3,1.4,3,3v0
			C136.2,461.4,134.9,462.7,133.2,462.7z"/>
		<path class="st0" d="M140.4,462.7L140.4,462.7c-1.7,0-3-1.4-3-3v0c0-1.7,1.4-3,3-3l0,0c1.7,0,3,1.4,3,3v0
			C143.4,461.4,142.1,462.7,140.4,462.7z"/>
		<path class="st0" d="M147.4,462.7L147.4,462.7c-1.7,0-3-1.4-3-3v0c0-1.7,1.4-3,3-3l0,0c1.7,0,3,1.4,3,3v0
			C150.4,461.4,149.1,462.7,147.4,462.7z"/>
		<path class="st0" d="M154.7,462.7L154.7,462.7c-1.7,0-3-1.4-3-3l0,0c0-1.7,1.4-3,3-3h0c1.7,0,3,1.4,3,3v0
			C157.7,461.4,156.4,462.7,154.7,462.7z"/>
		<path class="st0" d="M161.9,462.7L161.9,462.7c-1.7,0-3-1.4-3-3v0c0-1.7,1.4-3,3-3l0,0c1.7,0,3,1.4,3,3v0
			C164.9,461.4,163.5,462.7,161.9,462.7z"/>
		<path class="st0" d="M168.9,462.7L168.9,462.7c-1.7,0-3-1.4-3-3v0c0-1.7,1.4-3,3-3l0,0c1.7,0,3,1.4,3,3v0
			C172,461.4,170.6,462.7,168.9,462.7z"/>
		<path class="st0" d="M176.3,462.7L176.3,462.7c-1.7,0-3-1.4-3-3l0,0c0-1.7,1.4-3,3-3h0c1.7,0,3,1.4,3,3v0
			C179.3,461.4,178,462.7,176.3,462.7z"/>
		<path class="st0" d="M183.4,462.7L183.4,462.7c-1.7,0-3-1.4-3-3v0c0-1.7,1.4-3,3-3l0,0c1.7,0,3,1.4,3,3v0
			C186.4,461.4,185,462.7,183.4,462.7z"/>
		<path class="st0" d="M190.6,462.7L190.6,462.7c-1.7,0-3-1.4-3-3v0c0-1.7,1.4-3,3-3l0,0c1.7,0,3,1.4,3,3v0
			C193.6,461.4,192.3,462.7,190.6,462.7z"/>
		<path class="st0" d="M100.8,455.7L100.8,455.7c-1.7,0-3-1.4-3-3v0c0-1.7,1.4-3,3-3h0c1.7,0,3,1.4,3,3l0,0
			C103.8,454.4,102.4,455.7,100.8,455.7z"/>
		<path class="st0" d="M107.9,455.7L107.9,455.7c-1.7,0-3-1.4-3-3l0,0c0-1.7,1.4-3,3-3h0c1.7,0,3,1.4,3,3v0
			C110.9,454.4,109.5,455.7,107.9,455.7z"/>
		<path class="st0" d="M115.1,455.7L115.1,455.7c-1.7,0-3-1.4-3-3l0,0c0-1.7,1.4-3,3-3h0c1.7,0,3,1.4,3,3v0
			C118.2,454.4,116.8,455.7,115.1,455.7z"/>
		<path class="st0" d="M122.2,455.7L122.2,455.7c-1.7,0-3-1.4-3-3v0c0-1.7,1.4-3,3-3l0,0c1.7,0,3,1.4,3,3v0
			C125.3,454.4,123.9,455.7,122.2,455.7z"/>
		<path class="st0" d="M129.6,455.7L129.6,455.7c-1.7,0-3-1.4-3-3v0c0-1.7,1.4-3,3-3h0c1.7,0,3,1.4,3,3v0
			C132.6,454.4,131.2,455.7,129.6,455.7z"/>
		<path class="st0" d="M136.6,455.7L136.6,455.7c-1.7,0-3-1.4-3-3v0c0-1.7,1.4-3,3-3h0c1.7,0,3,1.4,3,3v0
			C139.6,454.4,138.3,455.7,136.6,455.7z"/>
		<path class="st0" d="M143.9,455.7L143.9,455.7c-1.7,0-3-1.4-3-3v0c0-1.7,1.4-3,3-3l0,0c1.7,0,3,1.4,3,3v0
			C146.9,454.4,145.6,455.7,143.9,455.7z"/>
		<path class="st0" d="M151,455.7L151,455.7c-1.7,0-3-1.4-3-3l0,0c0-1.7,1.4-3,3-3h0c1.7,0,3,1.4,3,3v0
			C154,454.4,152.7,455.7,151,455.7z"/>
		<path class="st0" d="M158.3,455.7L158.3,455.7c-1.7,0-3-1.4-3-3v0c0-1.7,1.4-3,3-3h0c1.7,0,3,1.4,3,3v0
			C161.3,454.4,160,455.7,158.3,455.7z"/>
		<path class="st0" d="M165.6,455.7L165.6,455.7c-1.7,0-3-1.4-3-3v0c0-1.7,1.4-3,3-3l0,0c1.7,0,3,1.4,3,3v0
			C168.6,454.4,167.2,455.7,165.6,455.7z"/>
		<path class="st0" d="M172.8,455.7L172.8,455.7c-1.7,0-3-1.4-3-3v0c0-1.7,1.4-3,3-3l0,0c1.7,0,3,1.4,3,3v0
			C175.8,454.4,174.4,455.7,172.8,455.7z"/>
		<path class="st0" d="M179.7,455.7L179.7,455.7c-1.7,0-3-1.4-3-3v0c0-1.7,1.4-3,3-3h0c1.7,0,3,1.4,3,3l0,0
			C182.7,454.4,181.4,455.7,179.7,455.7z"/>
		<path class="st0" d="M190.5,455.7h-3.6c-1.7,0-3-1.4-3-3v0c0-1.7,1.4-3,3-3h3.6c1.7,0,3,1.4,3,3v0
			C193.5,454.4,192.2,455.7,190.5,455.7z"/>
		<path class="st0" d="M97.1,462.7h-3.6c-1.7,0-3-1.4-3-3v0c0-1.7,1.4-3,3-3h3.6c1.7,0,3,1.4,3,3v0
			C100.1,461.4,98.7,462.7,97.1,462.7z"/>
	</g>
	<path class="st34" d="M189.1,439.3H94.7c-0.7,0-1.3-0.6-1.3-1.3l0,0c0-0.7,0.6-1.3,1.3-1.3h94.5c0.7,0,1.3,0.6,1.3,1.3l0,0
		C190.4,438.7,189.8,439.3,189.1,439.3z"/>
	<path class="st32" d="M200,436.7H83.8c-1.1,0-2.1-0.7-2.4-1.6l-18.2-47.3c-0.2-0.5,0.1-1,0.6-1h156c0.6,0,0.9,0.5,0.7,1.1l-18,47.1
		C202.2,436,201.1,436.7,200,436.7z"/>
	<path class="st34" d="M220.8,386.8L63,386.8c0,0,0.8-1.1,1.4-1.6c0.5-0.5,1.9-1.3,1.9-1.3h150.8c0,0,1.5,1,1.9,1.3
		C219.4,385.5,220.8,386.8,220.8,386.8z"/>
	<polygon class="st35" points="199.8,431.6 84.5,431.6 69.4,389.6 214.7,389.6 	"/>
	<path class="st8" d="M189.5,439.3H94.3c-0.5,0-0.9-0.4-0.9-0.9v0h97.1l0,0C190.4,438.8,190,439.3,189.5,439.3z"/>
	<path class="st13" d="M229.3,600.2H49.9l2.9-19.2l10-25c0.3,0,8.4-5,23.3-9.4c13.6-4,32.9-7.6,57.1-6.4c0,0,25.2-1.6,71.1,12.7
		L229.3,600.2z"/>
	<path class="st36" d="M189.7,530.4l-0.4-1.6c0,0-4.4,0.1-6.2-1.7c0,0-15.5-14.9-17.8-17.6c0,0-1.2-5.1,4.2-4.4c0,0,1-0.2,2.4,0.9
		l6.2,5.6l-7.5-25.4c-0.2-0.8-0.3-1.7-0.1-2.5c0.3-1.1,1-2.3,2.8-2.8c0,0,1-0.3,2.2,0.4c1.1,0.6,1.4,1.6,1.8,2.8l6.8,19.9l-6.3-22.7
		c-0.4-1.3-0.8-3.6-0.1-4.7c0.6-0.9,2-1.7,3.5-1.7c0,0,2.5,0.2,3.7,3.2l6.8,21.7l-4.5-17.9c-0.4-1.4-1.2-4.9,0.3-6
		c0.4-0.3,1-0.4,1.5-0.6c0,0,1.9-0.9,3.6,1.7c0.3,0.5,0.8,1.8,1,2.3l6.4,19.5l-3.5-13.4c-0.4-1.4-0.4-3.1,0.7-3.9
		c0.4-0.3,0.8-0.5,1.4-0.6c0,0,2.9-0.7,4.1,2.9l6.3,23.9l1.1,5.5c0.3,1.5,0.4,2.9,0.2,4.4c-0.1,1-0.3,2.2-0.8,3.2
		c0,0-0.8,2.1-1.4,2.3l0.6,2L189.7,530.4z"/>
	<path class="st37" d="M190.5,530.3l-0.4-1.6c0,0-4.4,0.1-6.2-1.7c0,0-15.5-14.9-17.8-17.6c0,0-1.2-5.1,4.2-4.4c0,0,1-0.2,2.4,0.9
		l6.2,5.6l-7.5-25.4c-0.2-0.8-0.3-1.7-0.1-2.5c0.3-1.1,1-2.3,2.8-2.8c0,0,1-0.3,2.2,0.4c1.1,0.6,1.4,1.6,1.8,2.8l6.8,19.9l-6.3-22.7
		c-0.4-1.3-0.8-3.6-0.1-4.7c0.6-0.9,2-1.7,3.5-1.7c0,0,2.5,0.2,3.7,3.2l6.8,21.7l-4.5-17.9c-0.4-1.4-1.2-4.9,0.3-6
		c0.4-0.3,1-0.4,1.5-0.6c0,0,1.9-0.9,3.6,1.7c0.3,0.5,0.8,1.8,1,2.3l6.4,19.5l-3.5-13.4c-0.4-1.4-0.4-3.1,0.7-3.9
		c0.4-0.3,0.8-0.5,1.4-0.6c0,0,2.9-0.7,4.1,2.9l6.3,23.9l1.1,5.5c0.3,1.5,0.4,2.9,0.2,4.4c-0.1,1-0.3,2.2-0.8,3.2
		c0,0-0.8,2.1-1.4,2.3l0.6,2L190.5,530.3z"/>
	
		<rect x="198.5" y="515" transform="matrix(-0.2919 -0.9564 0.9564 -0.2919 -246.4807 872.8536)" class="st0" width="2.8" height="25.4"/>
	<path class="st13" d="M212.4,524.8l0.9,3.4c0,0,8.2,29.2,14.3,53.6c2,7.9,3.5,14.7,4.2,18.4l-32.3,0c-0.5-12.2-8.8-51.2-8.8-51.2
		l-4.1-16.2l5.6-1.8L212.4,524.8z"/>
	<ellipse transform="matrix(0.7661 -0.6428 0.6428 0.7661 -294.5798 262)" class="st0" cx="212.7" cy="535.7" rx="1.1" ry="1.1"/>
	
		<ellipse transform="matrix(0.7661 -0.6428 0.6428 0.7661 -296.5143 263.4253)" class="st0" cx="213.6" cy="539.1" rx="1.1" ry="1.1"/>
	
		<ellipse transform="matrix(0.7661 -0.6428 0.6428 0.7661 -298.5036 264.8245)" class="st0" cx="214.6" cy="542.5" rx="1.1" ry="1.1"/>
	<path class="st38" d="M173.4,487.6l4.1-1.2c0.3-0.1,0.5-0.5,0.4-0.8l-0.7-2.2c0,0-0.7-1.7-3-1.3c0,0-1.9,0.4-2.3,2.3
		c0,0-0.1,0.8,0.4,2.1l0.2,0.7C172.7,487.6,173.1,487.7,173.4,487.6z"/>
	<path class="st38" d="M180.6,481.7l3.9-1.2c0.3-0.1,0.5-0.5,0.4-0.8l-0.7-2.1c0,0-0.6-1.6-2.8-1.3c0,0-1.8,0.4-2.2,2.2
		c0,0-0.1,0.7,0.4,2l0.2,0.7C179.9,481.6,180.2,481.7,180.6,481.7z"/>
	<path class="st38" d="M189.3,480.9l3.4-0.8c0.3-0.1,0.5-0.4,0.4-0.7l-0.5-1.8c0,0-0.5-1.4-2.4-1.2c0,0-1.6,0.2-2,1.8
		c0,0-0.1,0.6,0.3,1.8l0.1,0.6C188.7,480.8,189,481,189.3,480.9z"/>
	<path class="st38" d="M199,486.4l3.3-0.8c0.3-0.1,0.5-0.4,0.4-0.6l-0.5-1.8c0,0-0.5-1.4-2.3-1.2c0,0-1.6,0.2-1.9,1.8
		c0,0-0.1,0.6,0.3,1.7l0.1,0.6C198.4,486.3,198.7,486.5,199,486.4z"/>
	<path class="st38" d="M168.9,510.9l1.7-1.9c0.1-0.2,0.1-0.4-0.1-0.6l-1.4-1.1c0,0-1.2-0.8-2.3,0.1c0,0-0.9,0.8-0.2,2
		c0,0,0.3,0.5,1.2,1.2l0.4,0.4C168.5,511.1,168.8,511.1,168.9,510.9z"/>
	<path class="st36" d="M92.1,518.3l0.4-1.5c0,0,4.2,0.1,5.9-1.6c0,0,14.7-14.1,16.9-16.7c0,0,1.1-4.9-3.9-4.2c0,0-0.9-0.2-2.2,0.8
		l-5.9,5.3l7.1-24.1c0.2-0.8,0.3-1.6,0.1-2.4c-0.3-1-0.9-2.2-2.7-2.6c0,0-0.9-0.3-2.1,0.4c-1,0.6-1.4,1.5-1.7,2.6l-6.4,18.8
		l5.9-21.5c0.3-1.2,0.8-3.4,0.1-4.4c-0.6-0.9-1.9-1.6-3.3-1.6c0,0-2.4,0.2-3.5,3.1l-6.4,20.5l4.3-17c0.4-1.4,1.1-4.7-0.3-5.7
		c-0.4-0.3-0.9-0.4-1.4-0.5c0,0-1.8-0.9-3.4,1.6c-0.3,0.4-0.8,1.7-0.9,2.2l-6.1,18.5l3.3-12.7c0.4-1.3,0.4-2.9-0.7-3.7
		c-0.4-0.3-0.8-0.5-1.3-0.6c0,0-2.8-0.7-3.9,2.8L74,496.8l-1.1,5.2c-0.3,1.4-0.4,2.8-0.2,4.2c0.1,1,0.3,2.1,0.7,3c0,0,0.8,2,1.3,2.2
		l-0.6,1.9L92.1,518.3z"/>
	<path class="st37" d="M91.8,517.6l0.4-1.5c0,0,4.2,0.1,5.9-1.6c0,0,14.7-14.1,16.9-16.7c0,0,1.1-4.9-3.9-4.2c0,0-0.9-0.2-2.2,0.8
		l-5.9,5.3l7.1-24.1c0.2-0.8,0.3-1.6,0.1-2.4c-0.3-1-0.9-2.2-2.7-2.6c0,0-0.9-0.3-2.1,0.4c-1,0.6-1.4,1.5-1.7,2.6l-6.4,18.8
		l5.9-21.5c0.3-1.2,0.8-3.4,0.1-4.4c-0.6-0.9-1.9-1.6-3.3-1.6c0,0-2.4,0.2-3.5,3.1l-6.4,20.5l4.3-17c0.4-1.4,1.1-4.7-0.3-5.7
		c-0.4-0.3-0.9-0.4-1.4-0.5c0,0-1.8-0.9-3.4,1.6c-0.3,0.4-0.8,1.7-0.9,2.2l-6.1,18.5l3.3-12.7c0.4-1.3,0.4-2.9-0.7-3.7
		c-0.4-0.3-0.8-0.5-1.3-0.6c0,0-2.8-0.7-3.9,2.8l-5.9,22.6l-1.1,5.2c-0.3,1.4-0.4,2.8-0.2,4.2c0.1,1,0.3,2.1,0.7,3
		c0,0,0.8,2,1.3,2.2l-0.6,1.9L91.8,517.6z"/>
	
		<rect x="81.7" y="503.1" transform="matrix(0.2692 -0.9631 0.9631 0.2692 -436.0271 456.9949)" class="st0" width="2.8" height="25.4"/>
	<path class="st13" d="M95.2,520.8l-1.4,5.7l-4.9,19.5h0c-0.2,1-0.4,2-0.7,3c-3.9,17.4-8.2,39.1-8.8,51.2l-33.7,0
		c0.7-3.7,2.2-10.7,4.2-18.6c3.8-14.7,10.1-32.8,14-46.7l5.6-22.1L95.2,520.8z"/>
	
		<ellipse transform="matrix(0.6428 -0.7661 0.7661 0.6428 -374.5376 242.0219)" class="st0" cx="72.2" cy="522.6" rx="1.1" ry="1.1"/>
	<ellipse transform="matrix(0.6428 -0.7661 0.7661 0.6428 -377.4773 242.4688)" class="st0" cx="71.2" cy="526" rx="1.1" ry="1.1"/>
	
		<ellipse transform="matrix(0.6428 -0.7661 0.7661 0.6428 -380.4335 242.9834)" class="st0" cx="70.3" cy="529.4" rx="1.1" ry="1.1"/>
	<path class="st38" d="M107.9,477.3l-3.9-1.1c-0.3-0.1-0.5-0.4-0.4-0.8l0.7-2.1c0,0,0.6-1.6,2.8-1.3c0,0,1.8,0.4,2.2,2.2
		c0,0,0.1,0.7-0.4,2l-0.2,0.7C108.6,477.2,108.2,477.3,107.9,477.3z"/>
	<path class="st38" d="M101.1,471.6l-3.7-1.1c-0.3-0.1-0.5-0.4-0.4-0.7l0.6-2c0,0,0.6-1.6,2.7-1.2c0,0,1.7,0.4,2.1,2.1
		c0,0,0.1,0.7-0.4,1.9l-0.2,0.6C101.8,471.5,101.4,471.7,101.1,471.6z"/>
	<path class="st38" d="M92.9,470.9l-3.2-0.8c-0.3-0.1-0.4-0.3-0.4-0.6l0.5-1.8c0,0,0.5-1.4,2.3-1.2c0,0,1.5,0.2,1.9,1.7
		c0,0,0.1,0.6-0.3,1.7l-0.1,0.6C93.4,470.8,93.1,471,92.9,470.9z"/>
	<path class="st38" d="M83.7,476.1l-3.1-0.8c-0.3-0.1-0.4-0.3-0.4-0.6l0.5-1.7c0,0,0.4-1.3,2.2-1.1c0,0,1.5,0.2,1.8,1.7
		c0,0,0.1,0.6-0.3,1.6l-0.1,0.6C84.2,476,84,476.2,83.7,476.1z"/>
	<path class="st38" d="M112.2,499.3l-1.6-1.8c-0.1-0.2-0.1-0.4,0.1-0.6l1.3-1.1c0,0,1.1-0.8,2.2,0.1c0,0,0.9,0.8,0.2,1.9
		c0,0-0.3,0.5-1.2,1.1l-0.4,0.4C112.6,499.5,112.3,499.5,112.2,499.3z"/>
	<path class="st12" d="M95.2,520.8c-0.4,1.2-0.9,3.1-1.4,5.7l-4.9,19.5h0c-0.2,1-0.4,2-0.7,3c-3.9,17.4-8.2,39.1-8.8,51.2h-11
		l14.4-58.4c0,0,1.6-5.7,2.7-13c1.1-7.3-5.1-12.5-5.1-12.5L95.2,520.8z"/>
	<path class="st12" d="M198.2,529.1c0,0-2.3,3.3-2.9,7.9c-0.6,4.7,0.7,10.2,0.7,10.2l12.4,53h-8.9c-0.5-12.2-8.8-51.2-8.8-51.2
		l-4.1-16.2L198.2,529.1z"/>
	<path class="st39" d="M73.9,292.1l-4.1-4.2c-1.6-1.7-2-4.2-1-6.3c2.2-4.4,6.7-11.6,14.1-15.3c2.6-1.3,5.8-0.5,7.4,1.9l2.8,4.1
		C93,272.3,81.2,275.4,73.9,292.1z"/>
	<path class="st14" d="M152.9,166.5c2.1,0.1,4.1,0.8,5.8,1.6c0.1,0,0.1,0.1,0.2,0.1c6,3,8.9,11.8,9.3,18.5l0.2,2.8l0.1,0.7l4.1,46.1
		c-14-11.6-26.2-0.6-26.2-0.6l-3-12.9c-1-4.1-2.5-8-4.5-11.7c-4.6-8.3-11.9-26.1,0.3-38.3c0.3-0.3,0.6-0.6,0.9-0.8
		c2.5-2.3,4.9-3.8,7.2-4.6C149.2,166.6,151.1,166.4,152.9,166.5z"/>
	<path class="st39" d="M173.9,242.1l-0.1-5.9c0-2.4-1.5-4.4-3.8-5.2c-4.7-1.5-13-3.5-20.8-0.9c-2.8,0.9-4.4,3.7-3.9,6.6l0.8,5
		C146.3,241.7,156.8,235.7,173.9,242.1z"/>
	<path class="st39" d="M66.1,240.3c0,0-3.7,2.7-7.3,5.9c-2.5,2.2-6.6,6.7-6.6,6.7c-0.5,0.4-1.1,0.5-1.4,0.2l-0.3-0.3
		c-0.3-0.3-0.1-0.9,0.3-1.3c0,0,2.5-2.9,6.6-6.7c4.4-4,7.2-5.9,7.2-5.9c0.6-0.4,1.1-0.5,1.4-0.2l0.3,0.3
		C66.7,239.2,66.6,239.8,66.1,240.3z"/>
	<path class="st39" d="M62.8,236.5c0,0-3.7,2.7-7.3,5.9c-2.5,2.2-6.6,6.7-6.6,6.7c-0.5,0.4-1.1,0.5-1.4,0.2l-0.3-0.3
		c-0.3-0.3-0.1-0.9,0.3-1.3c0,0,2.5-2.9,6.6-6.7c4.4-4,7.2-5.9,7.2-5.9c0.6-0.4,1.1-0.5,1.4-0.2l0.3,0.3
		C63.4,235.5,63.3,236.1,62.8,236.5z"/>
	<path class="st39" d="M59.7,232.6c0,0-3.7,2.7-7.3,5.9c-2.5,2.2-6.6,6.7-6.6,6.7c-0.5,0.4-1.1,0.5-1.4,0.2l-0.3-0.3
		c-0.3-0.3-0.1-0.9,0.3-1.3c0,0,2.5-2.9,6.6-6.7c4.4-4,7.2-5.9,7.2-5.9c0.6-0.4,1.1-0.5,1.4-0.2l0.3,0.3
		C60.3,231.6,60.2,232.2,59.7,232.6z"/>
	<path class="st39" d="M162.3,196.1c0,0-4.6,0-9.3,0.6c-3.3,0.4-9.2,1.6-9.2,1.6c-0.6,0.1-1.2-0.2-1.2-0.7l0-0.4
		c-0.1-0.4,0.4-0.8,1-0.9c0,0,3.7-1,9.2-1.6c5.9-0.7,9.3-0.6,9.3-0.6c0.8,0,1.2,0.2,1.2,0.7l0,0.4
		C163.4,195.7,162.9,196.1,162.3,196.1z"/>
	<path class="st39" d="M161.8,191.2c0,0-4.6,0-9.3,0.6c-3.3,0.4-9.2,1.6-9.2,1.6c-0.6,0.1-1.2-0.2-1.2-0.7l0-0.4
		c-0.1-0.4,0.4-0.8,1-0.9c0,0,3.7-1,9.2-1.6c5.9-0.7,9.3-0.6,9.3-0.6c0.8,0,1.2,0.2,1.2,0.7l0,0.4
		C162.8,190.7,162.4,191.1,161.8,191.2z"/>
	<path class="st39" d="M161.5,186.2c0,0-4.6,0-9.3,0.6c-3.3,0.4-9.2,1.6-9.2,1.6c-0.6,0.1-1.2-0.2-1.2-0.7l0-0.4
		c-0.1-0.4,0.4-0.8,1-0.9c0,0,3.7-1,9.2-1.6c5.9-0.7,9.3-0.6,9.3-0.6c0.8,0,1.2,0.2,1.2,0.7l0,0.4
		C162.5,185.7,162.1,186.1,161.5,186.2z"/>
	<path class="st40" d="M38.2,221.3L38.2,221.3c-5.2,10.9,6.4,34.4,6.4,34.4l-5.8-6.9c-4.4-5-8.6-13.3-6.5-19.7
		C33.3,226.3,35.1,223.4,38.2,221.3z"/>
	<path class="st40" d="M168.5,190.2l-0.1-0.7C168.4,189.8,168.5,190,168.5,190.2z"/>
	<path class="st40" d="M152.9,166.5c2.7,0.2,4.6,1.1,5.8,1.6c0.1,0,0.1,0.1,0.2,0.1c6,3,8.9,11.8,9.3,18.5l0.2,2.8
		c-1.7-15.1-27.9-17.4-28.5-17.6c2.5-2.3,4.9-3.8,7.2-4.6C149.2,166.6,151.1,166.4,152.9,166.5z"/>
</g>
</svg>
